# xmcd
#
# Track frame offsets:
#	183
#	17483
#	33458
#	50283
#	68030
#	89693
#	106433
#	127110
#	144808
#	160385
#
# Disc length: 2406 seconds
#
# Revision: 5
# Processed by: cddbd v1.4PL0 Copyright (c) Steve Scherf et al.
# Submitted via: CDmax 2.0
#
DISCID=8309640a
DTITLE=Etta James - Stickin' To My Guns
DYEAR=1990
DGENRE=Blues
TTITLE0=Whatever Gets You Through the Night
TTITLE1=Love To Burn
TTITLE2=The Blues Don't Care
TTITLE3=Your Good Thing (Is About To End)
TTITLE4=Get Funky
TTITLE5=Beware
TTITLE6=Out of the Rain
TTITLE7=Stolen Affection
TTITLE8=A Fool In Love
TTITLE9=I've Got Dreams To Remember
EXTD=LABEL =Island Records, Inc.\nID =842926-2\nUPC =none\nCOPYRIGHT =1990
EXTT0=
EXTT1=
EXTT2=
EXTT3=
EXTT4=
EXTT5=
EXTT6=
EXTT7=
EXTT8=
EXTT9=
PLAYORDER=
